<svg width="96" height="68" viewBox="0 0 96 68" fill="none" xmlns="http://www.w3.org/2000/svg">
<path opacity="0.05" d="M23.9404 0.239994C31.4924 0.239994 37.2204 3.12 41.1244 8.88C45.0924 14.64 47.0764 22.928 47.0764 33.744C47.0764 44.624 45.0924 52.976 41.1244 58.8C37.2204 64.56 31.4924 67.44 23.9404 67.44C16.3884 67.44 10.6284 64.56 6.66038 58.8C2.75638 52.976 0.804375 44.624 0.804375 33.744C0.804375 22.928 2.75638 14.64 6.66038 8.88C10.6284 3.12 16.3884 0.239994 23.9404 0.239994ZM23.9404 9.552C20.2924 9.552 17.6364 11.408 15.9724 15.12C14.3084 18.768 13.4764 24.976 13.4764 33.744C13.4764 42.576 14.3084 48.848 15.9724 52.56C17.6364 56.272 20.2924 58.128 23.9404 58.128C27.5884 58.128 30.2444 56.304 31.9084 52.656C33.5724 48.944 34.4044 42.64 34.4044 33.744C34.4044 24.912 33.5724 18.672 31.9084 15.024C30.2444 11.376 27.5884 9.552 23.9404 9.552ZM72.8501 0.239994C77.1381 0.239994 80.8181 0.975994 83.8901 2.44799C87.0261 3.91999 89.3621 5.904 90.8981 8.4C92.4981 10.896 93.2981 13.648 93.2981 16.656C93.2981 20.56 92.1781 23.824 89.9381 26.448C87.6981 29.008 84.6261 30.8 80.7221 31.824C85.0101 32.208 88.5301 33.744 91.2821 36.432C94.0341 39.12 95.4101 42.832 95.4101 47.568C95.4101 51.28 94.4501 54.64 92.5301 57.648C90.6741 60.656 87.9861 63.056 84.4661 64.848C80.9461 66.576 76.7861 67.44 71.9861 67.44C63.1541 67.44 56.1781 64.336 51.0581 58.128L57.8741 51.6C60.0501 53.776 62.1941 55.376 64.3061 56.4C66.4181 57.36 68.7541 57.84 71.3141 57.84C74.7701 57.84 77.5221 56.88 79.5701 54.96C81.6821 52.976 82.7381 50.32 82.7381 46.992C82.7381 43.28 81.7461 40.624 79.7621 39.024C77.8421 37.424 74.9621 36.624 71.1221 36.624H66.0341L67.4741 27.888H70.9301C74.0661 27.888 76.5621 27.024 78.4181 25.296C80.3381 23.568 81.2981 21.168 81.2981 18.096C81.2981 15.472 80.4341 13.424 78.7061 11.952C76.9781 10.416 74.6741 9.648 71.7941 9.648C69.2981 9.648 67.0261 10.128 64.9781 11.088C62.9301 11.984 60.8821 13.392 58.8341 15.312L52.5941 8.496C58.4181 2.99199 65.1701 0.239994 72.8501 0.239994Z" fill="#1B1818"/>
</svg>
