<svg width="96" height="68" viewBox="0 0 96 68" fill="none" xmlns="http://www.w3.org/2000/svg">
<path opacity="0.05" d="M23.6279 0.239994C31.1799 0.239994 36.9079 3.12 40.8119 8.88C44.7799 14.64 46.7639 22.928 46.7639 33.744C46.7639 44.624 44.7799 52.976 40.8119 58.8C36.9079 64.56 31.1799 67.44 23.6279 67.44C16.0759 67.44 10.3159 64.56 6.34788 58.8C2.44388 52.976 0.491875 44.624 0.491875 33.744C0.491875 22.928 2.44388 14.64 6.34788 8.88C10.3159 3.12 16.0759 0.239994 23.6279 0.239994ZM23.6279 9.552C19.9799 9.552 17.3239 11.408 15.6599 15.12C13.9959 18.768 13.1639 24.976 13.1639 33.744C13.1639 42.576 13.9959 48.848 15.6599 52.56C17.3239 56.272 19.9799 58.128 23.6279 58.128C27.2759 58.128 29.9319 56.304 31.5959 52.656C33.2599 48.944 34.0919 42.64 34.0919 33.744C34.0919 24.912 33.2599 18.672 31.5959 15.024C29.9319 11.376 27.2759 9.552 23.6279 9.552ZM72.5399 0.239994C76.8919 0.239994 80.6359 1.04 83.7719 2.64C86.9719 4.24 89.4039 6.416 91.0679 9.168C92.7319 11.92 93.5639 14.992 93.5639 18.384C93.5639 22.032 92.7639 25.552 91.1639 28.944C89.6279 32.272 87.0359 35.984 83.3879 40.08C79.7399 44.176 74.3959 49.584 67.3559 56.304H95.0039L93.6599 66H53.4359V56.976C61.6279 48.656 67.4839 42.512 71.0039 38.544C74.5879 34.512 77.1159 31.088 78.5879 28.272C80.1239 25.392 80.8919 22.416 80.8919 19.344C80.8919 16.4 80.0279 14.096 78.2999 12.432C76.6359 10.768 74.3959 9.936 71.5799 9.936C69.0839 9.936 66.8759 10.48 64.9559 11.568C63.0999 12.592 61.1479 14.32 59.0999 16.752L51.6119 10.8C57.0519 3.75999 64.0279 0.239994 72.5399 0.239994Z" fill="#1B1818"/>
</svg>
